<svg width="173" height="67" viewBox="0 0 173 67" fill="none" xmlns="http://www.w3.org/2000/svg">
<path d="M66.102 26.786C66.102 27.9007 65.8233 28.9013 65.266 29.788C64.7087 30.6493 63.822 31.3333 62.606 31.84C64.0753 32.3213 65.1647 33.056 65.874 34.044C66.6087 35.032 66.976 36.1847 66.976 37.502C66.976 39.8833 66.1147 41.644 64.392 42.784C62.6947 43.8987 60.25 44.456 57.058 44.456C56.07 44.456 55.0187 44.4053 53.904 44.304C52.8147 44.2027 51.8013 44.0127 50.864 43.734C49.6987 43.4047 49.116 42.7333 49.116 41.72V22.72C49.116 22.2893 49.23 21.96 49.458 21.732C49.7113 21.4787 50.0533 21.2887 50.484 21.162C51.3453 20.8833 52.2953 20.6933 53.334 20.592C54.398 20.4907 55.538 20.44 56.754 20.44C59.718 20.44 62.0107 20.9593 63.632 21.998C65.2787 23.0367 66.102 24.6327 66.102 26.786ZM62.834 37.388C62.834 36.2227 62.4033 35.3107 61.542 34.652C60.6807 33.968 59.4393 33.626 57.818 33.626H53.106V40.846C53.638 40.9727 54.2713 41.074 55.006 41.15C55.7407 41.2007 56.4753 41.226 57.21 41.226C59.0087 41.226 60.3893 40.922 61.352 40.314C62.34 39.6807 62.834 38.7053 62.834 37.388ZM53.106 30.548H57.628C59.072 30.548 60.1613 30.2313 60.896 29.598C61.6307 28.9647 61.998 28.1033 61.998 27.014C61.998 24.7847 60.25 23.67 56.754 23.67C56.0193 23.67 55.348 23.6953 54.74 23.746C54.132 23.7967 53.5873 23.86 53.106 23.936V30.548ZM124.529 33.588V43.962C124.327 44.0127 124.061 44.076 123.731 44.152C123.402 44.228 123.035 44.266 122.629 44.266C121.844 44.266 121.274 44.1267 120.919 43.848C120.59 43.544 120.425 43.05 120.425 42.366V20.934C120.628 20.8833 120.894 20.8327 121.223 20.782C121.578 20.706 121.945 20.668 122.325 20.668C123.06 20.668 123.605 20.8073 123.959 21.086C124.339 21.3647 124.529 21.8587 124.529 22.568V31.156L134.295 20.744C135.258 20.7693 135.955 20.9847 136.385 21.39C136.816 21.77 137.031 22.226 137.031 22.758C137.031 23.1887 136.917 23.594 136.689 23.974C136.461 24.3287 136.132 24.7213 135.701 25.152L128.481 32.296C130.584 34.4493 132.421 36.362 133.991 38.034C135.587 39.6807 136.955 41.0233 138.095 42.062C138.045 42.7713 137.804 43.3287 137.373 43.734C136.968 44.114 136.474 44.304 135.891 44.304C135.283 44.304 134.764 44.1393 134.333 43.81C133.928 43.4807 133.51 43.1007 133.079 42.67L124.529 33.588ZM147.979 43.924C147.802 44 147.549 44.0633 147.219 44.114C146.915 44.19 146.561 44.228 146.155 44.228C145.421 44.228 144.876 44.0887 144.521 43.81C144.167 43.5313 143.989 43.0627 143.989 42.404V26.33C144.192 26.2793 144.445 26.216 144.749 26.14C145.079 26.064 145.446 26.026 145.851 26.026C146.586 26.026 147.118 26.1653 147.447 26.444C147.802 26.7227 147.979 27.204 147.979 27.888V43.924ZM143.571 20.744C143.571 20.0853 143.799 19.5407 144.255 19.11C144.711 18.654 145.294 18.426 146.003 18.426C146.713 18.426 147.283 18.654 147.713 19.11C148.144 19.5407 148.359 20.0853 148.359 20.744C148.359 21.4027 148.144 21.96 147.713 22.416C147.283 22.8467 146.713 23.062 146.003 23.062C145.294 23.062 144.711 22.8467 144.255 22.416C143.799 21.96 143.571 21.4027 143.571 20.744ZM158.389 37.122C158.744 38.566 159.428 39.6427 160.441 40.352C161.48 41.036 162.797 41.378 164.393 41.378C165.457 41.378 166.433 41.2133 167.319 40.884C168.206 40.5547 168.915 40.2 169.447 39.82C170.157 40.2253 170.511 40.7953 170.511 41.53C170.511 41.9607 170.347 42.366 170.017 42.746C169.688 43.1007 169.232 43.4173 168.649 43.696C168.092 43.9493 167.421 44.152 166.635 44.304C165.875 44.456 165.052 44.532 164.165 44.532C162.696 44.532 161.353 44.3293 160.137 43.924C158.947 43.5187 157.921 42.9107 157.059 42.1C156.198 41.2893 155.527 40.2887 155.045 39.098C154.589 37.9073 154.361 36.5267 154.361 34.956C154.361 33.436 154.589 32.106 155.045 30.966C155.501 29.8007 156.122 28.838 156.907 28.078C157.693 27.2927 158.617 26.6973 159.681 26.292C160.745 25.8867 161.885 25.684 163.101 25.684C164.317 25.684 165.419 25.8867 166.407 26.292C167.421 26.672 168.282 27.2167 168.991 27.926C169.726 28.61 170.283 29.4333 170.663 30.396C171.069 31.3587 171.271 32.41 171.271 33.55C171.271 34.1833 171.119 34.652 170.815 34.956C170.511 35.2347 170.068 35.4247 169.485 35.526L158.389 37.122ZM163.101 28.762C161.708 28.762 160.543 29.2307 159.605 30.168C158.693 31.1053 158.212 32.448 158.161 34.196L167.509 32.866C167.408 31.726 166.99 30.7633 166.255 29.978C165.521 29.1673 164.469 28.762 163.101 28.762Z" fill="#073B4C"/>
<path d="M90.5176 35.108C90.5176 36.552 90.3023 37.8567 89.8716 39.022C89.4409 40.1873 88.8329 41.1753 88.0476 41.986C87.2876 42.7967 86.3503 43.43 85.2356 43.886C84.1209 44.3167 82.8796 44.532 81.5116 44.532C80.1436 44.532 78.9023 44.3167 77.7876 43.886C76.6729 43.43 75.7229 42.7967 74.9376 41.986C74.1776 41.1753 73.5823 40.1873 73.1516 39.022C72.7209 37.8567 72.5056 36.552 72.5056 35.108C72.5056 33.664 72.7209 32.3593 73.1516 31.194C73.5823 30.0287 74.1903 29.0407 74.9756 28.23C75.7609 27.4193 76.7109 26.7987 77.8256 26.368C78.9403 25.912 80.1689 25.684 81.5116 25.684C82.8543 25.684 84.0829 25.912 85.1976 26.368C86.3123 26.7987 87.2623 27.432 88.0476 28.268C88.8329 29.0787 89.4409 30.0667 89.8716 31.232C90.3023 32.372 90.5176 33.664 90.5176 35.108ZM81.5116 28.876C79.9916 28.876 78.7883 29.4207 77.9016 30.51C77.0149 31.5993 76.5716 33.132 76.5716 35.108C76.5716 37.084 77.0023 38.6167 77.8636 39.706C78.7249 40.77 79.9409 41.302 81.5116 41.302C83.0823 41.302 84.2983 40.77 85.1596 39.706C86.0209 38.6167 86.4516 37.084 86.4516 35.108C86.4516 33.1573 86.0083 31.6373 85.1216 30.548C84.2603 29.4333 83.0569 28.876 81.5116 28.876ZM113.755 35.108C113.755 36.552 113.54 37.8567 113.109 39.022C112.679 40.1873 112.071 41.1753 111.285 41.986C110.525 42.7967 109.588 43.43 108.473 43.886C107.359 44.3167 106.117 44.532 104.749 44.532C103.381 44.532 102.14 44.3167 101.025 43.886C99.9108 43.43 98.9608 42.7967 98.1755 41.986C97.4155 41.1753 96.8202 40.1873 96.3895 39.022C95.9588 37.8567 95.7435 36.552 95.7435 35.108C95.7435 33.664 95.9588 32.3593 96.3895 31.194C96.8202 30.0287 97.4282 29.0407 98.2135 28.23C98.9988 27.4193 99.9488 26.7987 101.063 26.368C102.178 25.912 103.407 25.684 104.749 25.684C106.092 25.684 107.321 25.912 108.435 26.368C109.55 26.7987 110.5 27.432 111.285 28.268C112.071 29.0787 112.679 30.0667 113.109 31.232C113.54 32.372 113.755 33.664 113.755 35.108ZM104.749 28.876C103.229 28.876 102.026 29.4207 101.139 30.51C100.253 31.5993 99.8095 33.132 99.8095 35.108C99.8095 37.084 100.24 38.6167 101.101 39.706C101.963 40.77 103.179 41.302 104.749 41.302C106.32 41.302 107.536 40.77 108.397 39.706C109.259 38.6167 109.689 37.084 109.689 35.108C109.689 33.1573 109.246 31.6373 108.359 30.548C107.498 29.4333 106.295 28.876 104.749 28.876Z" fill="#2DA3CA"/>
<path d="M35.7715 19.1144C32.1562 19.3196 24.9705 20.0664 20.5345 22.7818C20.2284 22.9691 20.0549 23.3023 20.0549 23.6506V47.656C20.0549 48.4179 20.8881 48.8995 21.5907 48.5459C26.1547 46.2488 32.7552 45.622 36.0189 45.4505C37.1331 45.3918 37.9993 44.4985 37.9993 43.4278V21.1397C38 19.9714 36.9867 19.0458 35.7715 19.1144ZM17.4648 22.7818C13.0295 20.0664 5.84382 19.3202 2.22854 19.1144C1.01333 19.0458 0 19.9714 0 21.1397V43.4285C0 44.4998 0.866215 45.3931 1.98049 45.4512C5.24545 45.6227 11.8493 46.2501 16.4132 48.5486C17.1139 48.9015 17.9444 48.4206 17.9444 47.6606V23.6388C17.9444 23.2898 17.7716 22.9698 17.4648 22.7818Z" fill="#2DA3CA"/>
</svg>
