<svg width="196" height="44" viewBox="0 0 196 44" fill="none" xmlns="http://www.w3.org/2000/svg">
<path d="M56.28 6.48C58.36 6.32 60.48 6.24 62.64 6.24C64.8267 6.24 66.7067 6.77333 68.28 7.84C69.88 8.90666 70.68 10.4533 70.68 12.48C70.68 14 70.2533 15.4133 69.4 16.72C68.5733 18.0267 67.5733 19.0133 66.4 19.68C68.2933 20.2667 69.88 21.28 71.16 22.72C72.44 24.16 73.08 25.7733 73.08 27.56C73.08 30.0667 72.28 31.9733 70.68 33.28C69.1067 34.5867 66.9333 35.24 64.16 35.24C61.4133 35.24 58.7867 35.1333 56.28 34.92V6.48ZM64.4 33.52C66.3467 33.52 67.9467 32.9867 69.2 31.92C70.4533 30.8267 71.08 29.44 71.08 27.76C71.08 26.08 70.4667 24.6267 69.24 23.4C68.04 22.1733 66.3867 21.3333 64.28 20.88C63.2933 20.6667 62.1467 20.56 60.84 20.56C59.56 20.56 58.68 20.56 58.2 20.56V33.32C59.3733 33.4533 61.44 33.52 64.4 33.52ZM68.76 12.44C68.76 10.9733 68.1467 9.84 66.92 9.04C65.72 8.24 64.36 7.84 62.84 7.84C61.3467 7.84 59.8 7.89333 58.2 8V18.92C58.5467 18.92 59.2 18.92 60.16 18.92C61.12 18.92 62.5333 19 64.4 19.16C65.6 18.52 66.6267 17.6 67.48 16.4C68.3333 15.2 68.76 13.88 68.76 12.44ZM161.872 9.04L150.793 21.56C155.166 26.8667 158.153 30.2267 159.753 31.64C161.379 33.0533 162.993 33.8533 164.593 34.04L164.553 35.28C163.059 35.2533 161.846 35.04 160.913 34.64C159.979 34.2133 159.153 33.6533 158.433 32.96C157.713 32.2667 156.166 30.5733 153.793 27.88C151.446 25.16 149.686 23.08 148.513 21.64L159.673 9.04H161.872ZM147.953 9.04V35H146.113V9.04H147.953ZM168.769 35V9.04H170.609V35H168.769ZM180.214 35V9.04H192.334V10.64H182.054V20.08H191.334V21.64H182.054V33.32H192.734V35H180.214Z" fill="#073B4C"/>
<path d="M92.4363 35.4C88.7296 35.4 85.6229 34.1067 83.1163 31.52C80.6096 28.9333 79.3563 25.7733 79.3563 22.04C79.3563 18.28 80.6096 15.1067 83.1163 12.52C85.6229 9.93333 88.7296 8.64 92.4363 8.64C96.1429 8.64 99.2496 9.93333 101.756 12.52C104.263 15.1067 105.516 18.28 105.516 22.04C105.516 25.7733 104.263 28.9333 101.756 31.52C99.2496 34.1067 96.1429 35.4 92.4363 35.4ZM92.4363 10.28C89.2363 10.28 86.5696 11.4133 84.4363 13.68C82.3296 15.9467 81.2763 18.7333 81.2763 22.04C81.2763 25.32 82.3296 28.0933 84.4363 30.36C86.5696 32.6 89.2363 33.72 92.4363 33.72C95.6629 33.72 98.3296 32.6 100.436 30.36C102.543 28.0933 103.596 25.32 103.596 22.04C103.596 18.7333 102.543 15.9467 100.436 13.68C98.3296 11.4133 95.6629 10.28 92.4363 10.28ZM125.014 35.4C121.308 35.4 118.201 34.1067 115.694 31.52C113.188 28.9333 111.934 25.7733 111.934 22.04C111.934 18.28 113.188 15.1067 115.694 12.52C118.201 9.93333 121.308 8.64 125.014 8.64C128.721 8.64 131.828 9.93333 134.334 12.52C136.841 15.1067 138.094 18.28 138.094 22.04C138.094 25.7733 136.841 28.9333 134.334 31.52C131.828 34.1067 128.721 35.4 125.014 35.4ZM125.014 10.28C121.814 10.28 119.148 11.4133 117.014 13.68C114.908 15.9467 113.854 18.7333 113.854 22.04C113.854 25.32 114.908 28.0933 117.014 30.36C119.148 32.6 121.814 33.72 125.014 33.72C128.241 33.72 130.908 32.6 133.014 30.36C135.121 28.0933 136.174 25.32 136.174 22.04C136.174 18.7333 135.121 15.9467 133.014 13.68C130.908 11.4133 128.241 10.28 125.014 10.28Z" fill="#2DA3CA"/>
<path d="M37.6542 7.2257C33.8486 7.44167 26.2847 8.22778 21.6153 11.0861C21.2931 11.2833 21.1104 11.634 21.1104 12.0007V37.2694C21.1104 38.0715 21.9875 38.5785 22.7271 38.2062C27.5313 35.7882 34.4792 35.1285 37.9146 34.9479C39.0875 34.8861 39.9993 33.9458 39.9993 32.8187V9.35764C40 8.12778 38.9333 7.15347 37.6542 7.2257ZM18.384 11.0861C13.7153 8.22778 6.15139 7.44236 2.34583 7.2257C1.06667 7.15347 0 8.12778 0 9.35764V32.8194C0 33.9472 0.911806 34.8875 2.08472 34.9486C5.52153 35.1292 12.4729 35.7896 17.2771 38.209C18.0146 38.5806 18.8889 38.0743 18.8889 37.2743V11.9882C18.8889 11.6208 18.7069 11.284 18.384 11.0861Z" fill="#2DA3CA"/>
</svg>
