<svg width="40" height="36" viewBox="0 0 40 36" fill="none" xmlns="http://www.w3.org/2000/svg">
<path d="M37.6542 2.2257C33.8486 2.44167 26.2847 3.22778 21.6153 6.08611C21.2931 6.28333 21.1104 6.63403 21.1104 7.00069V32.2694C21.1104 33.0715 21.9875 33.5785 22.7271 33.2062C27.5313 30.7882 34.4792 30.1285 37.9146 29.9479C39.0875 29.8861 39.9993 28.9458 39.9993 27.8187V4.35764C40 3.12778 38.9333 2.15347 37.6542 2.2257ZM18.384 6.08611C13.7153 3.22778 6.15139 2.44236 2.34583 2.2257C1.06667 2.15347 0 3.12778 0 4.35764V27.8194C0 28.9472 0.911806 29.8875 2.08472 29.9486C5.52153 30.1292 12.4729 30.7896 17.2771 33.209C18.0146 33.5806 18.8889 33.0743 18.8889 32.2743V6.98819C18.8889 6.62083 18.7069 6.28403 18.384 6.08611Z" fill="#06D6A0"/>
</svg>
