<svg width="78" height="110" viewBox="0 0 78 110" fill="none" xmlns="http://www.w3.org/2000/svg">
<rect width="77.36" height="110" fill="#D6F1FA"/>
<path d="M16.592 50.6V59H15.308L10.676 53.312V59H9.128V50.6H10.412L15.044 56.288V50.6H16.592ZM21.5788 59.084C20.9308 59.084 20.3468 58.944 19.8268 58.664C19.3068 58.384 18.8988 57.996 18.6028 57.5C18.3148 56.996 18.1708 56.428 18.1708 55.796C18.1708 55.164 18.3148 54.6 18.6028 54.104C18.8988 53.608 19.3068 53.22 19.8268 52.94C20.3468 52.66 20.9308 52.52 21.5788 52.52C22.2348 52.52 22.8228 52.66 23.3428 52.94C23.8628 53.22 24.2668 53.608 24.5548 54.104C24.8508 54.6 24.9988 55.164 24.9988 55.796C24.9988 56.428 24.8508 56.996 24.5548 57.5C24.2668 57.996 23.8628 58.384 23.3428 58.664C22.8228 58.944 22.2348 59.084 21.5788 59.084ZM21.5788 57.8C22.1308 57.8 22.5868 57.616 22.9468 57.248C23.3068 56.88 23.4868 56.396 23.4868 55.796C23.4868 55.196 23.3068 54.712 22.9468 54.344C22.5868 53.976 22.1308 53.792 21.5788 53.792C21.0268 53.792 20.5708 53.976 20.2108 54.344C19.8588 54.712 19.6828 55.196 19.6828 55.796C19.6828 56.396 19.8588 56.88 20.2108 57.248C20.5708 57.616 21.0268 57.8 21.5788 57.8ZM29.8936 50.6H31.4536V59H29.8936V50.6ZM41.6697 52.52C42.4777 52.52 43.1177 52.756 43.5897 53.228C44.0617 53.692 44.2977 54.392 44.2977 55.328V59H42.7977V55.52C42.7977 54.96 42.6737 54.54 42.4257 54.26C42.1777 53.972 41.8217 53.828 41.3577 53.828C40.8537 53.828 40.4497 53.996 40.1457 54.332C39.8417 54.66 39.6897 55.132 39.6897 55.748V59H38.1897V55.52C38.1897 54.96 38.0657 54.54 37.8177 54.26C37.5697 53.972 37.2137 53.828 36.7497 53.828C36.2377 53.828 35.8297 53.992 35.5257 54.32C35.2297 54.648 35.0817 55.124 35.0817 55.748V59H33.5817V52.592H35.0097V53.408C35.2497 53.12 35.5497 52.9 35.9097 52.748C36.2697 52.596 36.6697 52.52 37.1097 52.52C37.5897 52.52 38.0137 52.612 38.3817 52.796C38.7577 52.972 39.0537 53.236 39.2697 53.588C39.5337 53.252 39.8737 52.992 40.2897 52.808C40.7057 52.616 41.1657 52.52 41.6697 52.52ZM48.6625 52.52C49.6065 52.52 50.3265 52.748 50.8225 53.204C51.3265 53.652 51.5785 54.332 51.5785 55.244V59H50.1625V58.22C49.9785 58.5 49.7145 58.716 49.3705 58.868C49.0345 59.012 48.6265 59.084 48.1465 59.084C47.6665 59.084 47.2465 59.004 46.8865 58.844C46.5265 58.676 46.2465 58.448 46.0465 58.16C45.8545 57.864 45.7585 57.532 45.7585 57.164C45.7585 56.588 45.9705 56.128 46.3945 55.784C46.8265 55.432 47.5025 55.256 48.4225 55.256H50.0785V55.16C50.0785 54.712 49.9425 54.368 49.6705 54.128C49.4065 53.888 49.0105 53.768 48.4825 53.768C48.1225 53.768 47.7665 53.824 47.4145 53.936C47.0705 54.048 46.7785 54.204 46.5385 54.404L45.9505 53.312C46.2865 53.056 46.6905 52.86 47.1625 52.724C47.6345 52.588 48.1345 52.52 48.6625 52.52ZM48.4585 57.992C48.8345 57.992 49.1665 57.908 49.4545 57.74C49.7505 57.564 49.9585 57.316 50.0785 56.996V56.252H48.5305C47.6665 56.252 47.2345 56.536 47.2345 57.104C47.2345 57.376 47.3425 57.592 47.5585 57.752C47.7745 57.912 48.0745 57.992 48.4585 57.992ZM59.9221 52.592V58.028C59.9221 60.284 58.7701 61.412 56.4661 61.412C55.8501 61.412 55.2661 61.332 54.7141 61.172C54.1621 61.02 53.7061 60.796 53.3461 60.5L54.0181 59.372C54.2981 59.604 54.6501 59.788 55.0741 59.924C55.5061 60.068 55.9421 60.14 56.3821 60.14C57.0861 60.14 57.6021 59.98 57.9301 59.66C58.2581 59.34 58.4221 58.852 58.4221 58.196V57.86C58.1661 58.14 57.8541 58.352 57.4861 58.496C57.1181 58.64 56.7141 58.712 56.2741 58.712C55.6661 58.712 55.1141 58.584 54.6181 58.328C54.1301 58.064 53.7421 57.696 53.4541 57.224C53.1741 56.752 53.0341 56.212 53.0341 55.604C53.0341 54.996 53.1741 54.46 53.4541 53.996C53.7421 53.524 54.1301 53.16 54.6181 52.904C55.1141 52.648 55.6661 52.52 56.2741 52.52C56.7381 52.52 57.1581 52.596 57.5341 52.748C57.9181 52.9 58.2381 53.132 58.4941 53.444V52.592H59.9221ZM56.5021 57.44C57.0701 57.44 57.5341 57.272 57.8941 56.936C58.2621 56.592 58.4461 56.148 58.4461 55.604C58.4461 55.068 58.2621 54.632 57.8941 54.296C57.5341 53.96 57.0701 53.792 56.5021 53.792C55.9261 53.792 55.4541 53.96 55.0861 54.296C54.7261 54.632 54.5461 55.068 54.5461 55.604C54.5461 56.148 54.7261 56.592 55.0861 56.936C55.4541 57.272 55.9261 57.44 56.5021 57.44ZM67.9182 55.832C67.9182 55.936 67.9102 56.084 67.8942 56.276H62.8662C62.9542 56.748 63.1822 57.124 63.5502 57.404C63.9262 57.676 64.3902 57.812 64.9422 57.812C65.6462 57.812 66.2262 57.58 66.6822 57.116L67.4862 58.04C67.1982 58.384 66.8342 58.644 66.3942 58.82C65.9542 58.996 65.4582 59.084 64.9062 59.084C64.2022 59.084 63.5822 58.944 63.0462 58.664C62.5102 58.384 62.0942 57.996 61.7982 57.5C61.5102 56.996 61.3662 56.428 61.3662 55.796C61.3662 55.172 61.5062 54.612 61.7862 54.116C62.0742 53.612 62.4702 53.22 62.9742 52.94C63.4782 52.66 64.0462 52.52 64.6782 52.52C65.3022 52.52 65.8582 52.66 66.3462 52.94C66.8422 53.212 67.2262 53.6 67.4982 54.104C67.7782 54.6 67.9182 55.176 67.9182 55.832ZM64.6782 53.72C64.1982 53.72 63.7902 53.864 63.4542 54.152C63.1262 54.432 62.9262 54.808 62.8542 55.28H66.4902C66.4262 54.816 66.2302 54.44 65.9022 54.152C65.5742 53.864 65.1662 53.72 64.6782 53.72Z" fill="#70BBD3"/>
</svg>
