<svg width="35" height="35" viewBox="0 0 35 35" fill="none" xmlns="http://www.w3.org/2000/svg">
<circle cx="17.5" cy="17.5" r="17" stroke="#073B4C"/>
<path d="M10.5 15.1667C9.21666 15.1667 8.16666 16.2167 8.16666 17.5C8.16666 18.7834 9.21666 19.8334 10.5 19.8334C11.7833 19.8334 12.8333 18.7834 12.8333 17.5C12.8333 16.2167 11.7833 15.1667 10.5 15.1667ZM24.5 15.1667C23.2167 15.1667 22.1667 16.2167 22.1667 17.5C22.1667 18.7834 23.2167 19.8334 24.5 19.8334C25.7833 19.8334 26.8333 18.7834 26.8333 17.5C26.8333 16.2167 25.7833 15.1667 24.5 15.1667ZM17.5 15.1667C16.2167 15.1667 15.1667 16.2167 15.1667 17.5C15.1667 18.7834 16.2167 19.8334 17.5 19.8334C18.7833 19.8334 19.8333 18.7834 19.8333 17.5C19.8333 16.2167 18.7833 15.1667 17.5 15.1667Z" fill="#073B4C"/>
</svg>
