<svg width="173" height="67" viewBox="0 0 173 67" fill="none" xmlns="http://www.w3.org/2000/svg">
<path d="M66.102 26.786C66.102 27.9007 65.8233 28.9013 65.266 29.788C64.7087 30.6493 63.822 31.3333 62.606 31.84C64.0753 32.3213 65.1647 33.056 65.874 34.044C66.6087 35.032 66.976 36.1847 66.976 37.502C66.976 39.8833 66.1147 41.644 64.392 42.784C62.6947 43.8987 60.25 44.456 57.058 44.456C56.07 44.456 55.0187 44.4053 53.904 44.304C52.8147 44.2027 51.8013 44.0127 50.864 43.734C49.6987 43.4047 49.116 42.7333 49.116 41.72V22.72C49.116 22.2893 49.23 21.96 49.458 21.732C49.7113 21.4787 50.0533 21.2887 50.484 21.162C51.3453 20.8833 52.2953 20.6933 53.334 20.592C54.398 20.4907 55.538 20.44 56.754 20.44C59.718 20.44 62.0107 20.9593 63.632 21.998C65.2787 23.0367 66.102 24.6327 66.102 26.786ZM62.834 37.388C62.834 36.2227 62.4033 35.3107 61.542 34.652C60.6807 33.968 59.4393 33.626 57.818 33.626H53.106V40.846C53.638 40.9727 54.2713 41.074 55.006 41.15C55.7407 41.2007 56.4753 41.226 57.21 41.226C59.0087 41.226 60.3893 40.922 61.352 40.314C62.34 39.6807 62.834 38.7053 62.834 37.388ZM53.106 30.548H57.628C59.072 30.548 60.1613 30.2313 60.896 29.598C61.6307 28.9647 61.998 28.1033 61.998 27.014C61.998 24.7847 60.25 23.67 56.754 23.67C56.0193 23.67 55.348 23.6953 54.74 23.746C54.132 23.7967 53.5873 23.86 53.106 23.936V30.548ZM123.959 43.924C123.782 44 123.529 44.0633 123.199 44.114C122.895 44.19 122.553 44.228 122.173 44.228C121.439 44.228 120.894 44.0887 120.539 43.81C120.185 43.5313 120.007 43.0627 120.007 42.404V19.338C120.185 19.2873 120.438 19.224 120.767 19.148C121.097 19.072 121.451 19.034 121.831 19.034C122.566 19.034 123.098 19.1733 123.427 19.452C123.782 19.7307 123.959 20.1993 123.959 20.858V33.588L131.787 25.874C132.598 25.8993 133.231 26.0893 133.687 26.444C134.169 26.7987 134.409 27.2547 134.409 27.812C134.409 28.268 134.257 28.6733 133.953 29.028C133.649 29.3827 133.206 29.8133 132.623 30.32L127.569 34.766L135.397 41.91C135.321 42.6447 135.093 43.2273 134.713 43.658C134.359 44.0633 133.852 44.266 133.193 44.266C132.687 44.266 132.231 44.1393 131.825 43.886C131.445 43.6327 131.027 43.2527 130.571 42.746L123.959 35.754V43.924ZM145.196 43.924C145.019 44 144.765 44.0633 144.436 44.114C144.132 44.19 143.777 44.228 143.372 44.228C142.637 44.228 142.093 44.0887 141.738 43.81C141.383 43.5313 141.206 43.0627 141.206 42.404V26.33C141.409 26.2793 141.662 26.216 141.966 26.14C142.295 26.064 142.663 26.026 143.068 26.026C143.803 26.026 144.335 26.1653 144.664 26.444C145.019 26.7227 145.196 27.204 145.196 27.888V43.924ZM140.788 20.744C140.788 20.0853 141.016 19.5407 141.472 19.11C141.928 18.654 142.511 18.426 143.22 18.426C143.929 18.426 144.499 18.654 144.93 19.11C145.361 19.5407 145.576 20.0853 145.576 20.744C145.576 21.4027 145.361 21.96 144.93 22.416C144.499 22.8467 143.929 23.062 143.22 23.062C142.511 23.062 141.928 22.8467 141.472 22.416C141.016 21.96 140.788 21.4027 140.788 20.744ZM155.606 37.122C155.961 38.566 156.645 39.6427 157.658 40.352C158.697 41.036 160.014 41.378 161.61 41.378C162.674 41.378 163.65 41.2133 164.536 40.884C165.423 40.5547 166.132 40.2 166.664 39.82C167.374 40.2253 167.728 40.7953 167.728 41.53C167.728 41.9607 167.564 42.366 167.234 42.746C166.905 43.1007 166.449 43.4173 165.866 43.696C165.309 43.9493 164.638 44.152 163.852 44.304C163.092 44.456 162.269 44.532 161.382 44.532C159.913 44.532 158.57 44.3293 157.354 43.924C156.164 43.5187 155.138 42.9107 154.276 42.1C153.415 41.2893 152.744 40.2887 152.262 39.098C151.806 37.9073 151.578 36.5267 151.578 34.956C151.578 33.436 151.806 32.106 152.262 30.966C152.718 29.8007 153.339 28.838 154.124 28.078C154.91 27.2927 155.834 26.6973 156.898 26.292C157.962 25.8867 159.102 25.684 160.318 25.684C161.534 25.684 162.636 25.8867 163.624 26.292C164.638 26.672 165.499 27.2167 166.208 27.926C166.943 28.61 167.5 29.4333 167.88 30.396C168.286 31.3587 168.488 32.41 168.488 33.55C168.488 34.1833 168.336 34.652 168.032 34.956C167.728 35.2347 167.285 35.4247 166.702 35.526L155.606 37.122ZM160.318 28.762C158.925 28.762 157.76 29.2307 156.822 30.168C155.91 31.1053 155.429 32.448 155.378 34.196L164.726 32.866C164.625 31.726 164.207 30.7633 163.472 29.978C162.738 29.1673 161.686 28.762 160.318 28.762Z" fill="#073B4C"/>
<path d="M90.5176 35.108C90.5176 36.552 90.3023 37.8567 89.8716 39.022C89.4409 40.1873 88.8329 41.1753 88.0476 41.986C87.2876 42.7967 86.3503 43.43 85.2356 43.886C84.1209 44.3167 82.8796 44.532 81.5116 44.532C80.1436 44.532 78.9023 44.3167 77.7876 43.886C76.6729 43.43 75.7229 42.7967 74.9376 41.986C74.1776 41.1753 73.5823 40.1873 73.1516 39.022C72.7209 37.8567 72.5056 36.552 72.5056 35.108C72.5056 33.664 72.7209 32.3593 73.1516 31.194C73.5823 30.0287 74.1903 29.0407 74.9756 28.23C75.7609 27.4193 76.7109 26.7987 77.8256 26.368C78.9403 25.912 80.1689 25.684 81.5116 25.684C82.8543 25.684 84.0829 25.912 85.1976 26.368C86.3123 26.7987 87.2623 27.432 88.0476 28.268C88.8329 29.0787 89.4409 30.0667 89.8716 31.232C90.3023 32.372 90.5176 33.664 90.5176 35.108ZM81.5116 28.876C79.9916 28.876 78.7883 29.4207 77.9016 30.51C77.0149 31.5993 76.5716 33.132 76.5716 35.108C76.5716 37.084 77.0023 38.6167 77.8636 39.706C78.7249 40.77 79.9409 41.302 81.5116 41.302C83.0823 41.302 84.2983 40.77 85.1596 39.706C86.0209 38.6167 86.4516 37.084 86.4516 35.108C86.4516 33.1573 86.0083 31.6373 85.1216 30.548C84.2603 29.4333 83.0569 28.876 81.5116 28.876ZM113.755 35.108C113.755 36.552 113.54 37.8567 113.109 39.022C112.679 40.1873 112.071 41.1753 111.285 41.986C110.525 42.7967 109.588 43.43 108.473 43.886C107.359 44.3167 106.117 44.532 104.749 44.532C103.381 44.532 102.14 44.3167 101.025 43.886C99.9108 43.43 98.9608 42.7967 98.1755 41.986C97.4155 41.1753 96.8202 40.1873 96.3895 39.022C95.9588 37.8567 95.7435 36.552 95.7435 35.108C95.7435 33.664 95.9588 32.3593 96.3895 31.194C96.8202 30.0287 97.4282 29.0407 98.2135 28.23C98.9988 27.4193 99.9488 26.7987 101.063 26.368C102.178 25.912 103.407 25.684 104.749 25.684C106.092 25.684 107.321 25.912 108.435 26.368C109.55 26.7987 110.5 27.432 111.285 28.268C112.071 29.0787 112.679 30.0667 113.109 31.232C113.54 32.372 113.755 33.664 113.755 35.108ZM104.749 28.876C103.229 28.876 102.026 29.4207 101.139 30.51C100.253 31.5993 99.8095 33.132 99.8095 35.108C99.8095 37.084 100.24 38.6167 101.101 39.706C101.963 40.77 103.179 41.302 104.749 41.302C106.32 41.302 107.536 40.77 108.397 39.706C109.259 38.6167 109.689 37.084 109.689 35.108C109.689 33.1573 109.246 31.6373 108.359 30.548C107.498 29.4333 106.295 28.876 104.749 28.876Z" fill="#2DA3CA"/>
<path d="M35.7715 19.1144C32.1562 19.3196 24.9705 20.0664 20.5345 22.7818C20.2284 22.9691 20.0549 23.3023 20.0549 23.6506V47.656C20.0549 48.4179 20.8881 48.8995 21.5907 48.5459C26.1547 46.2488 32.7552 45.622 36.0189 45.4505C37.1331 45.3918 37.9993 44.4985 37.9993 43.4278V21.1397C38 19.9714 36.9867 19.0458 35.7715 19.1144ZM17.4648 22.7818C13.0295 20.0664 5.84382 19.3202 2.22854 19.1144C1.01333 19.0458 0 19.9714 0 21.1397V43.4285C0 44.4998 0.866215 45.3931 1.98049 45.4512C5.24545 45.6227 11.8493 46.2501 16.4132 48.5486C17.1139 48.9015 17.9444 48.4206 17.9444 47.6606V23.6388C17.9444 23.2898 17.7716 22.9698 17.4648 22.7818Z" fill="#2DA3CA"/>
</svg>
